<?xml version="1.0"?>
<svg xmlns="http://www.w3.org/2000/svg" viewBox="0 0 512 512" width="512" height="512"><g id="solid"><path d="M352,175.36V134.987a32,32,0,0,1,0-61.974V32.639l-30.4,2.339A862.089,862.089,0,0,0,194.289,54.451L160,62.364v75.728l6.077,1.869A860.6,860.6,0,0,0,352,175.36Z"/><path d="M107.37,128a54.908,54.908,0,0,1,10.741,1.063L144,134.241V65.759l-25.891,5.178A54.872,54.872,0,0,1,107.37,72h-3.783A55.1,55.1,0,0,1,70.73,61.047L67.864,58.9A54.836,54.836,0,0,0,35.169,48H32V159.968a54.1,54.1,0,0,0,36.647-15.929A54.4,54.4,0,0,1,107.37,128Z"/><circle cx="360" cy="104" r="16"/><path d="M272,208h26.2a163.875,163.875,0,0,0-.247-22.446q-13.006-1.815-25.957-4.017Z"/><rect x="464" y="64" width="16" height="80"/><path d="M368,32.241V73.013a32,32,0,0,1,0,61.974v40.772a142.875,142.875,0,0,0,62.76-18.551L448,147.357V60.643l-17.24-9.851A142.875,142.875,0,0,0,368,32.241Z"/><path d="M316,377.384H282.592a111.683,111.683,0,0,1,13.4-33.631,23.757,23.757,0,0,0,3.4.247,26.307,26.307,0,0,0,23.254-13.953l23.256-43.6a164.547,164.547,0,0,0,18.26-94.511c-1.384.037-2.77.068-4.156.068h0q-.306,0-.613-.023l-7.74-.6q-18.783-1.444-37.5-3.71.375,6.177.331,12.329H336a8,8,0,0,1,0,16H313.631q-.787,8.057-2.3,16H328a8,8,0,0,1,0,16H307.512q-2.336,8.106-5.444,16H320a8,8,0,0,1,0,16H296a7.951,7.951,0,0,1-1.109-.086c-.755,1.48-1.524,2.953-2.322,4.416L286.2,296H304a8,8,0,0,1,0,16H280a7.97,7.97,0,0,1-2.193-.312,23.35,23.35,0,0,0,4.086,24.438,127.637,127.637,0,0,0-15.633,41.258H168a81.941,81.941,0,0,0-57.941-24H96v8H72a8,8,0,0,0,0,16H96v16H72a8,8,0,0,0,0,16H96v8h14.059a81.941,81.941,0,0,0,57.941-24h96.249q-.249,3.986-.249,8v28a52,52,0,1,0,52-52Zm0,88a36.041,36.041,0,0,1-36-36v-28q0-4.017.284-8H316a36,36,0,0,1,0,72Z"/></g></svg>
